<svg xmlns="http://www.w3.org/2000/svg" width="171" height="36" role="img" aria-label="License: GPL-3.0"><title>License: GPL-3.0</title><rect x="0.75" y="0.75" width="169.5" height="34.5" rx="8" fill="#0d1117" stroke="#303b4d"/><path d="M95 1h68a8 8 0 0 1 8 8v18a8 8 0 0 1-8 8h-68Z" fill="#22C776"/><path d="M95 6v24" stroke="#ffffff" stroke-opacity=".16"/><svg x="12" y="10" width="16" height="16" viewBox="0 0 16 16" aria-hidden="true"><path fill="#ffffff" d="M8 1.25 2.5 3.2v4.16c0 3.42 2.29 6.55 5.5 7.39 3.21-.84 5.5-3.97 5.5-7.39V3.2L8 1.25Zm0 1.59 4 1.42v3.1c0 2.6-1.64 5.05-4 5.82-2.36-.77-4-3.22-4-5.82v-3.1l4-1.42Z"/></svg><text x="36" y="22.5" fill="#f8fafc" font-family="Segoe UI,Arial,sans-serif" font-size="11.5" font-weight="700" letter-spacing=".15">License</text><text x="133" y="22.5" fill="#ffffff" text-anchor="middle" font-family="Segoe UI,Arial,sans-serif" font-size="12" font-weight="700">GPL-3.0</text></svg>
