<svg xmlns="http://www.w3.org/2000/svg" width="166" height="34" viewBox="0 0 166 34" role="img" aria-label="License: GPL-3.0">
<title>License: GPL-3.0</title>
<defs><linearGradient id="bg" x1="0" y1="0" x2="1" y2="1"><stop offset="0" stop-color="#0F172A"/><stop offset="1" stop-color="#0A0F1D"/></linearGradient><linearGradient id="a" x1="0" y1="0" x2="1" y2="0"><stop offset="0" stop-color="#34D399"/><stop offset="1" stop-color="#22C55E"/></linearGradient></defs>
<rect x=".5" y=".5" width="165" height="33" rx="10" fill="url(#bg)" stroke="#263248"/>
<rect x="1.5" y="8" width="3" height="18" rx="1.5" fill="url(#a)"/>
<circle cx="20" cy="17" r="9.75" fill="none" stroke="#34D399" stroke-opacity=".22"/>
<g transform="translate(12 9)" fill="url(#a)"><path d="M8 1.25 2.5 3.2v4.16c0 3.42 2.29 6.55 5.5 7.39 3.21-.84 5.5-3.97 5.5-7.39V3.2L8 1.25Zm0 1.59 4 1.42v3.1c0 2.6-1.64 5.05-4 5.82-2.36-.77-4-3.22-4-5.82v-3.1l4-1.42Z"/></g>
<text x="37" y="20.5" fill="#F8FAFC" font-family="Segoe UI,Inter,Arial,sans-serif" font-size="10.5" font-weight="800">License</text>
<rect x="97" y="5" width="64" height="24" rx="8" fill="url(#a)"/><text x="129" y="20.5" text-anchor="middle" fill="#07130B" font-family="Segoe UI,Inter,Arial,sans-serif" font-size="10.4" font-weight="900">GPL-3.0</text>
</svg>
