<svg xmlns="http://www.w3.org/2000/svg" width="158" height="36" role="img" aria-label="Downloads: 270"><title>Downloads: 270</title><rect x="0.75" y="0.75" width="156.5" height="34.5" rx="8" fill="#0d1117" stroke="#303b4d"/><path d="M106 1h44a8 8 0 0 1 8 8v18a8 8 0 0 1-8 8h-44Z" fill="#1689E8"/><path d="M106 6v24" stroke="#ffffff" stroke-opacity=".16"/><svg x="12" y="10" width="16" height="16" viewBox="0 0 16 16" aria-hidden="true"><path fill="#ffffff" d="M8 2.25a.75.75 0 0 1 .75.75v5.69l1.97-1.97a.75.75 0 1 1 1.06 1.06l-3.25 3.25a.75.75 0 0 1-1.06 0L4.22 7.78a.75.75 0 0 1 1.06-1.06l1.97 1.97V3A.75.75 0 0 1 8 2.25Zm-4.75 10a.75.75 0 0 1 .75-.75h8a.75.75 0 0 1 0 1.5H4a.75.75 0 0 1-.75-.75Z"/></svg><text x="36" y="22.5" fill="#f8fafc" font-family="Segoe UI,Arial,sans-serif" font-size="11.5" font-weight="700" letter-spacing=".15">Downloads</text><text x="132" y="22.5" fill="#ffffff" text-anchor="middle" font-family="Segoe UI,Arial,sans-serif" font-size="12" font-weight="700">270</text></svg>
