<svg xmlns="http://www.w3.org/2000/svg" width="144" height="36" role="img" aria-label="Stars: 3"><title>Stars: 3</title><rect x="0.75" y="0.75" width="142.5" height="34.5" rx="8" fill="#0d1117" stroke="#303b4d"/><path d="M92 1h44a8 8 0 0 1 8 8v18a8 8 0 0 1-8 8h-44Z" fill="#F2A900"/><path d="M92 6v24" stroke="#ffffff" stroke-opacity=".16"/><svg x="12" y="10" width="16" height="16" viewBox="0 0 16 16" aria-hidden="true"><path fill="#ffffff" d="M8 .75a.75.75 0 0 1 .673.418L10.52 4.9l4.12.599a.75.75 0 0 1 .416 1.279l-2.98 2.905.704 4.103a.75.75 0 0 1-1.088.79L8 12.61l-3.694 1.943a.75.75 0 0 1-1.088-.79l.704-4.103-2.98-2.905a.75.75 0 0 1 .416-1.279l4.12-.599L7.327 1.168A.75.75 0 0 1 8 .75Z"/></svg><text x="36" y="22.5" fill="#f8fafc" font-family="Segoe UI,Arial,sans-serif" font-size="11.5" font-weight="700" letter-spacing=".15">Stars</text><text x="118" y="22.5" fill="#ffffff" text-anchor="middle" font-family="Segoe UI,Arial,sans-serif" font-size="12" font-weight="700">3</text></svg>
