<svg xmlns="http://www.w3.org/2000/svg" width="158" height="36" role="img" aria-label="Release: v2.3.11"><title>Release: v2.3.11</title><rect x="0.75" y="0.75" width="156.5" height="34.5" rx="8" fill="#0d1117" stroke="#303b4d"/><path d="M92 1h58a8 8 0 0 1 8 8v18a8 8 0 0 1-8 8h-58Z" fill="#7C3AED"/><path d="M92 6v24" stroke="#ffffff" stroke-opacity=".16"/><svg x="12" y="10" width="16" height="16" viewBox="0 0 16 16" aria-hidden="true"><path fill="#ffffff" d="M7.73 2.5a1.5 1.5 0 0 0-1.06.44L2.44 7.17a1.5 1.5 0 0 0 0 2.12l4.27 4.27a1.5 1.5 0 0 0 2.12 0l4.23-4.23a1.5 1.5 0 0 0 .44-1.06V4A1.5 1.5 0 0 0 12 2.5H7.73Zm0 1.5H12v4.27L7.77 12.5 3.5 8.23 7.73 4ZM9 7a1 1 0 1 0 0-2 1 1 0 0 0 0 2Z"/></svg><text x="36" y="22.5" fill="#f8fafc" font-family="Segoe UI,Arial,sans-serif" font-size="11.5" font-weight="700" letter-spacing=".15">Release</text><text x="125" y="22.5" fill="#ffffff" text-anchor="middle" font-family="Segoe UI,Arial,sans-serif" font-size="12" font-weight="700">v2.3.11</text></svg>
