<svg xmlns="http://www.w3.org/2000/svg" width="159" height="34" viewBox="0 0 159 34" role="img" aria-label="Release: v2.3.18">
<title>Release: v2.3.18</title>
<defs><linearGradient id="bg" x1="0" y1="0" x2="1" y2="1"><stop offset="0" stop-color="#0F172A"/><stop offset="1" stop-color="#0A0F1D"/></linearGradient><linearGradient id="a" x1="0" y1="0" x2="1" y2="0"><stop offset="0" stop-color="#A78BFA"/><stop offset="1" stop-color="#7C3AED"/></linearGradient></defs>
<rect x=".5" y=".5" width="158" height="33" rx="10" fill="url(#bg)" stroke="#263248"/>
<rect x="1.5" y="8" width="3" height="18" rx="1.5" fill="url(#a)"/>
<circle cx="20" cy="17" r="9.75" fill="none" stroke="#A78BFA" stroke-opacity=".22"/>
<g transform="translate(12 9)" fill="url(#a)"><path d="M7.73 2.5a1.5 1.5 0 0 0-1.06.44L2.44 7.17a1.5 1.5 0 0 0 0 2.12l4.27 4.27a1.5 1.5 0 0 0 2.12 0l4.23-4.23a1.5 1.5 0 0 0 .44-1.06V4A1.5 1.5 0 0 0 12 2.5H7.73Zm0 1.5H12v4.27L7.77 12.5 3.5 8.23 7.73 4ZM9 7a1 1 0 1 0 0-2 1 1 0 0 0 0 2Z"/></g>
<text x="37" y="20.5" fill="#F8FAFC" font-family="Segoe UI,Inter,Arial,sans-serif" font-size="10.5" font-weight="800">Release</text>
<rect x="94" y="5" width="60" height="24" rx="8" fill="url(#a)"/><text x="124" y="20.5" text-anchor="middle" fill="#F8FAFC" font-family="Segoe UI,Inter,Arial,sans-serif" font-size="10.4" font-weight="900">v2.3.18</text>
</svg>
